<?xml version="1.0" encoding="UTF-8"?>
<svg xmlns="http://www.w3.org/2000/svg" viewBox="0 0 900.98 409.6">
  <defs>
    <style>
      .cls-1 {
        fill: #fff;
      }

      .cls-2 {
        fill: #b31e3b;
      }
    </style>
  </defs>
  <g id="Backgrounds">
    <rect class="cls-2" x=".47" y="-.2" width="900.51" height="410.01"/>
  </g>
  <g id="Logos">
    <g>
      <g>
        <path class="cls-1" d="M57.81,287.38L104.39,23.29h95.09c36.45,0,64.61,8.15,84.51,24.45,19.89,16.3,29.84,41.9,29.84,76.8,0,6.93-.26,13.73-.77,20.4-.51,6.67-1.28,13.22-2.31,19.64-4.62,26.18-13.6,48.38-26.95,66.6-13.35,18.22-30.28,32.14-50.82,41.77-20.53,9.62-44.28,14.44-71.22,14.44H57.81ZM100.16,255.82h59.67c16.17,0,30.73-2.18,43.7-6.55,12.96-4.36,24.19-10.59,33.68-18.67,9.5-8.08,17.2-18.16,23.1-30.22,5.9-12.06,10.13-25.67,12.7-40.81.77-4.36,1.35-8.47,1.73-12.32.39-3.85.64-7.5.77-10.97.13-3.47.19-6.74.19-9.82,0-17.2-3.08-31.06-9.24-41.58-6.16-10.52-15.14-18.16-26.95-22.91-11.81-4.75-26.05-7.12-42.74-7.12h-61.21l-35.42,200.96Z"/>
        <path class="cls-1" d="M340.38,287.38L386.97,23.29h125.5c15.39,0,28.68,2.25,39.84,6.74,11.16,4.49,19.76,10.84,25.79,19.05,6.03,8.22,9.05,18.48,9.05,30.8,0,10.78-2.31,20.98-6.93,30.61-4.62,9.62-10.97,17.71-19.05,24.25-8.08,6.55-17.52,11.23-28.3,14.05l-.38,1.54c11.29,3.59,20.66,9.82,28.1,18.67,7.44,8.86,11.16,20.86,11.16,36,0,18.48-4.04,33.81-12.13,46-8.08,12.19-19.12,21.3-33.11,27.33-13.99,6.04-29.84,9.05-47.54,9.05h-138.59ZM382.73,255.82h97.78c11.29,0,20.98-1.92,29.07-5.78,8.08-3.85,14.37-9.56,18.87-17.13,4.49-7.57,6.74-17.13,6.74-28.68s-3.59-20.53-10.78-26.95c-7.19-6.41-17.59-9.62-31.19-9.62h-95.09l-15.4,88.16ZM403.91,136.47h92.4c7.95,0,15.21-1.22,21.75-3.66,6.55-2.44,12.06-5.9,16.55-10.39s7.96-9.62,10.39-15.4c2.44-5.78,3.66-12,3.66-18.67,0-11.29-3.27-19.7-9.82-25.22-6.55-5.52-15.21-8.28-25.99-8.28h-95.09l-13.86,81.62Z"/>
        <path class="cls-1" d="M609.49,287.38l46.2-264.1h187.48l-5.78,31.57h-150.53l-15.01,84.69h137.05l-5.39,31.19h-137.05l-20.4,116.65h-36.57Z"/>
      </g>
      <g>
        <path class="cls-1" d="M29.1,346.25c-1.32-5.12-5.48-9.21-12.28-9.21-6.14,0-9.8,2.92-9.87,8.19-.15,11.55,29.68,8.63,29.68,25.59,0,7.68-4.31,15.5-17.77,15.5-11.55,0-16.08-7.46-18.86-13.75l5.34-1.9c2.12,5.56,6.07,10.67,13.82,10.67s11.63-4.09,11.63-9.5c0-13.45-29.68-9.5-29.68-26.17,0-7.6,6.36-13.6,15.87-13.6,8.19,0,14.62,4.31,17.4,13.01l-5.26,1.17Z"/>
        <path class="cls-1" d="M42.77,385.58l16.23-52.79h8.7l16.23,52.79h-6.14l-4.97-16.52h-18.94l-4.97,16.52h-6.14ZM55.35,364.09h16.01l-7.6-27.2h-.8l-7.6,27.2Z"/>
        <path class="cls-1" d="M93.59,385.58v-52.79h8.41l23.03,40.65h.29v-40.65h5.26v52.79h-4.83l-26.76-47.08h-.15v47.08h-5.26Z"/>
        <path class="cls-1" d="M161.73,337.77v47.82h-5.85v-47.82h-15.79v-4.97h37.43v4.97h-15.79Z"/>
        <path class="cls-1" d="M176.86,385.58l16.23-52.79h8.7l16.23,52.79h-6.14l-4.97-16.52h-18.94l-4.97,16.52h-6.14ZM189.44,364.09h16.01l-7.6-27.2h-.8l-7.6,27.2Z"/>
        <path class="cls-1" d="M283.9,369.79c-2.34,9.8-7.75,16.52-18.57,16.52-11.84,0-20.18-8.63-20.18-27.12,0-17.18,7.46-27.12,20.18-27.12,9.8,0,15.5,5.7,17.84,15.35l-5.41,1.61c-1.9-7.46-5.26-11.99-13.16-11.99s-13.6,7.02-13.6,22.15,6,22.15,14.77,22.15c8.12,0,11.26-6.14,12.87-12.58l5.26,1.02Z"/>
        <path class="cls-1" d="M294.65,385.58v-52.79h5.85v47.82h25v4.97h-30.85Z"/>
        <path class="cls-1" d="M329.16,385.58l16.23-52.79h8.7l16.23,52.79h-6.14l-4.97-16.52h-18.94l-4.97,16.52h-6.14ZM341.73,364.09h16.01l-7.6-27.2h-.8l-7.6,27.2Z"/>
        <path class="cls-1" d="M379.39,385.58v-52.79h16.96c11.41,0,17.62,5.12,17.62,13.89,0,7.46-4.31,11.7-10.53,13.75l11.19,25.15h-6.36l-10.67-23.98h-12.36v23.98h-5.85ZM385.23,356.63h10.6c8.04,0,12.28-3,12.28-9.65,0-7.09-4.83-9.21-12.36-9.21h-10.53v18.86Z"/>
        <path class="cls-1" d="M422.6,385.58l16.23-52.79h8.7l16.23,52.79h-6.14l-4.97-16.52h-18.94l-4.97,16.52h-6.14ZM435.17,364.09h16.01l-7.6-27.2h-.8l-7.6,27.2Z"/>
        <path class="cls-1" d="M501.56,332.8v37.29c0,6.14,4.39,11.26,12.65,11.26s12.65-5.12,12.65-11.26v-37.29h5.85v36.85c0,10.53-7.6,16.67-18.5,16.67s-18.5-6.14-18.5-16.67v-36.85h5.85Z"/>
        <path class="cls-1" d="M548.5,385.58v-52.79h8.41l23.03,40.65h.29v-40.65h5.26v52.79h-4.83l-26.76-47.08h-.15v47.08h-5.26Z"/>
        <path class="cls-1" d="M608.45,332.8v52.79h-5.85v-52.79h5.85Z"/>
        <path class="cls-1" d="M619.05,332.8h5.85l13.01,43.28h.15l13.09-43.28h5.92l-16.38,52.79h-5.34l-16.3-52.79Z"/>
        <path class="cls-1" d="M697.94,332.8v4.97h-25.81v17.69h18.35v4.97h-18.35v20.18h27.27v4.97h-33.12v-52.79h31.66Z"/>
        <path class="cls-1" d="M710.37,385.58v-52.79h16.96c11.41,0,17.62,5.12,17.62,13.89,0,7.46-4.31,11.7-10.53,13.75l11.19,25.15h-6.36l-10.67-23.98h-12.36v23.98h-5.85ZM716.22,356.63h10.6c8.04,0,12.28-3,12.28-9.65,0-7.09-4.83-9.21-12.36-9.21h-10.53v18.86Z"/>
        <path class="cls-1" d="M784.58,346.25c-1.32-5.12-5.48-9.21-12.28-9.21-6.14,0-9.8,2.92-9.87,8.19-.15,11.55,29.68,8.63,29.68,25.59,0,7.68-4.31,15.5-17.77,15.5-11.55,0-16.08-7.46-18.86-13.75l5.34-1.9c2.12,5.56,6.07,10.67,13.82,10.67s11.63-4.09,11.63-9.5c0-13.45-29.68-9.5-29.68-26.17,0-7.6,6.36-13.6,15.87-13.6,8.19,0,14.62,4.31,17.4,13.01l-5.26,1.17Z"/>
        <path class="cls-1" d="M811.56,332.8v52.79h-5.85v-52.79h5.85Z"/>
        <path class="cls-1" d="M844.09,337.77v47.82h-5.85v-47.82h-15.79v-4.97h37.43v4.97h-15.79Z"/>
        <path class="cls-1" d="M878.9,363.36l-16.23-30.56h6.43l12.72,24.2,12.72-24.2h6.43l-16.23,30.56v22.23h-5.85v-22.23Z"/>
      </g>
    </g>
  </g>
</svg>