<?xml version="1.0" encoding="UTF-8"?>
<svg id="Logos" xmlns="http://www.w3.org/2000/svg" viewBox="0 0 2043.68 409.6">
  <defs>
    <style>
      .cls-1 {
        font-family: Archivo-SemiBoldItalic, Archivo;
        font-size: 215.36px;
        font-style: italic;
        font-variation-settings: 'wght' 600, 'wdth' 100;
        font-weight: 600;
      }

      .cls-1, .cls-2, .cls-3 {
        fill: #b31e3b;
      }

      .cls-2 {
        font-family: TradeGothicLTStd, 'Trade Gothic LT Std';
        font-size: 130.48px;
      }
    </style>
  </defs>
  <g>
    <path id="Body" class="cls-3" d="M35.93,149.62s-10.61,10.15-19.48,28.94C9.38,193.54-.92,209.1.07,217.77c.62,5.46,14.54,9.23,18.55,8.58,1.84-.3,5.45-12.09,10.84-15.2,5.39-3.1,9.77-2.28,17.25-6.48,7.49-4.2,11.96-12.6,11.96-12.6,0,0,3.2,3.1,5.57,8.95,2.37,5.84,3.29,17.73,3.39,27.83.1,10.1-5.48,18.73-5.66,37.71s7.03,25.61,5.47,29.91c-1.75,4.83-11.49,10.74-21.49,15.49-11.26,5.34-22.87,8.24-22.87,15.28,0,8.41,7.76,12.18,11.31,16.63,3.55,4.46,7.47,12.85,9.12,16.27,1.95,4.04,25.53,8.28,27.72,6.09,1.85-1.85-.92-18.51-5.66-18.93-4.01-.35-11.89.83-11.89.83,0,0-2.35-3.78-3.31-6.89-.89-2.88-5.74-11.52-5.74-11.52,0,0,24.58-3.63,41.33-7.49,20.66-4.76,21.11-9.43,39.88-9.43,16.05,0,29.02.23,43.8-2.31,20.25-3.49,41.96-13.46,55.69-13.46,6.32,0,13.08,14.13,24.66,21.36,11.57,7.23,39.8,19.28,48.29,27.06,8.5,7.77,10.21,14.42,12.27,20.31,2.09,5.96,3.25,17.72,3.25,17.72,0,0,.8.3.56,2.62-.14,1.39-2.85,6.12-7.16,10.53-.73.75-1.13,7.95-1.13,7.95h19.01s-1.32-3.47-.57-5.98,6.23-6.38,6.6-7.52-3.09-16.64-7.2-28.05-6.63-18.99-7.92-22.01-1.63-6.95-3.47-9.56c-1.84-2.61-11.17-3.91-20.03-19.44-8.86-15.53-4.37-24.14-4.37-24.14l.73-28.39s-3.64-15.89-15.28-23.9c-11.65-8.01-17.47-12.25-41-12.13-23.53.12-50.03,9.7-70.57,6.41s-31.91-8.25-31.91-8.25l7.06-3.41s-12.93-42.09-28.65-57.05c-15.72-14.96-22.06-19.52-39.81-21.55-17.75-2.03-28.4,2.28-28.4,2.28,0,0-4.56-4.56-6.34-3.04s1.99,10.78,1.99,10.78Z"/>
    <path id="Wing" class="cls-3" d="M132.33,229.68s13.53-8.15,14.26-25.89-11.78-44.22-8.29-58.33c3.49-14.11,29.82-25.16,29.82-25.16,0,0,81.89-39.56,106.47-56.15S360.12,0,360.12,0c0,0,2.91,1.6,3.2,8.73.29,7.13-6.4,27.93-20.36,43.35-13.96,15.42-37.09,35.2-70.98,51.93-33.89,16.73-66.94,28.17-66.04,30.11.91,1.94,36.85-10.83,70.84-27.57,34.69-17.08,66.58-40.03,70.69-36.43,8.15,7.13-9.97,31.21-33.16,48.29-27.48,20.24-99.42,36.81-99.24,38.8s17.49-2.43,40.04-8.54c22.55-6.11,44.62-13.23,46.55-11.05,1.92,2.18-3.26,23.27-39.66,31.9-24.14,5.72-51.02,7.29-51.11,8.68s9.32,1.3,25.31-.44c19.06-2.07,26.04-6.4,27.78-1.6s-9.75,11.05-19.2,13.67c-9.45,2.62-42.5,4.53-42.62,5.96s9.31,1.16,19.93.15,18.91-3.93,19.93-1.16c1.02,2.76-5.82,8.73-15.13,10.76s-33.16,3.69-33.16,5.53,19.9-.92,20.66,1.6c.76,2.52-26.48,15.12-26.48,15.12l-7.42,5.67-48.15-3.78Z"/>
    <path id="Back_Leg" data-name="Back Leg" class="cls-3" d="M214.02,301.41c-3.23,1.39-4,8.62-.53,12.89,4.41,5.42,14.08,8.54,14.08,10.52,0,3.55-19.78,8.75-23.42,10-3.64,1.25-13.78,6.37-14.76,8.18-.98,1.81-2,6.44-2.22,7.63s2.72,5.77,3.37,6.87c1.03,1.74,7.37,9.6,10.92,9.6s9.12-9.91,8.81-11.97-7.32-3.66-6.26-6.55,42.9-12.83,43.85-13.03,5.47-5.01,5.47-8.37c0-1.75-5.27-4.44-12.26-10.36-6.55-5.54-10.37-14.94-13.61-16.54-3.17-1.56-8.27-1.08-13.44,1.14Z"/>
    <path id="Tail" class="cls-3" d="M258.61,239.27s2.19-7.67,24.59-2.92c22.4,4.75,36.4,21.06,36.4,21.06,0,0,20.21,25.81,28.73,32.63,8.52,6.82,15.46,8.64,28.86,7.06s25.36-26.06,27.76-25.69c2.4.37-3.46,17.62-11.68,25.84-12.52,12.52-24.96,11.9-25.18,14.75-.22,2.85,13.38-.28,13.52,2.41.09,1.7-10.63,4.49-18.79,3.76-8.16-.73-25.32-7.31-25.32-7.31,0,0,2.8,3.29.97,4.87-1.83,1.58-18.26-5.11-26.18-15.22-7.91-10.11-18.87-39.93-26.54-43.71-7.67-3.77-25.81,7.18-25.81,7.18l-1.34-24.72Z"/>
    <path id="Front_Leg" data-name="Front Leg" class="cls-3" d="M120.04,342.91c4.77,9.72,8.66,27.38,7.04,33.27-1.62,5.9-3.01,10.06-7.98,13.64-4.97,3.58-8.09,6.47-8.09,6.47l-1.39,5.2h22.2s-3.24-3.93-1.04-6.94.92-.35,2.54-1.39,1.5-3.12,1.5-3.12c0,0,4.97-4.16,6.13-7.4s-1.5-24.97-1.5-24.97c0,0-1.16-13.99-1.33-18.73-.17-4.74.54-22.41,0-22.95s-15.88-.76-20.99-.05c-5.1.71-7.41,2.11-7.56,2.74s10.47,24.21,10.47,24.21Z"/>
    <path id="Ground" class="cls-3" d="M217.87,398.69c-38.82,1.32-164.43-2.27-164.81,3.7s108.86,8.16,172.42,6.84c63.56-1.32,160.62,2.77,160.62-2.79s-168.23-7.75-168.23-7.75Z"/>
  </g>
  <text/>
  <g>
    <text class="cls-1" transform="translate(434.13 215.78)"><tspan x="0" y="0">Design Build Fly</tspan></text>
    <text class="cls-2" transform="translate(440.59 380.37)"><tspan x="0" y="0">Santa Clara University</tspan></text>
  </g>
</svg>