<?xml version="1.0" encoding="UTF-8"?>
<svg id="Logos" xmlns="http://www.w3.org/2000/svg" viewBox="0 0 409.6 409.6">
  <defs>
    <style>
      .cls-1 {
        fill: #b31e3b;
      }
    </style>
  </defs>
  <path id="Body" class="cls-1" d="M85.32,165.28s-7.6,7.27-13.95,20.73c-5.06,10.72-12.45,21.87-11.74,28.08.45,3.91,10.41,6.61,13.28,6.14,1.32-.22,3.9-8.66,7.76-10.88,3.86-2.22,7-1.63,12.36-4.64,5.36-3.01,8.57-9.02,8.57-9.02,0,0,2.29,2.22,3.99,6.41s2.36,12.7,2.43,19.93c.07,7.23-3.92,13.41-4.05,27.01-.13,13.6,5.03,18.34,3.91,21.42-1.25,3.46-8.23,7.7-15.39,11.09-8.06,3.83-16.38,5.9-16.38,10.94,0,6.02,5.56,8.72,8.1,11.91,2.54,3.19,5.35,9.2,6.53,11.65,1.39,2.9,18.29,5.93,19.85,4.36,1.32-1.32-.66-13.26-4.05-13.56-2.87-.25-8.51.59-8.51.59,0,0-1.68-2.71-2.37-4.94-.63-2.06-4.11-8.25-4.11-8.25,0,0,17.6-2.6,29.6-5.37,14.8-3.41,15.12-6.76,28.56-6.76,11.49,0,20.78.17,31.37-1.66,14.5-2.5,30.05-9.64,39.89-9.64,4.53,0,9.37,10.12,17.66,15.3,8.29,5.18,28.5,13.81,34.59,19.38s7.31,10.33,8.79,14.55c1.5,4.27,2.33,12.69,2.33,12.69,0,0,.57.21.4,1.88-.1,1-2.04,4.38-5.13,7.54-.52.54-.81,5.69-.81,5.69h13.62s-.95-2.49-.41-4.28c.54-1.8,4.46-4.57,4.73-5.39.27-.82-2.21-11.92-5.16-20.09-2.94-8.18-4.75-13.6-5.67-15.76-.93-2.16-1.17-4.98-2.49-6.85-1.32-1.87-8-2.8-14.34-13.92-6.34-11.12-3.13-17.29-3.13-17.29l.52-20.33s-2.61-11.38-10.95-17.12c-8.34-5.73-12.51-8.77-29.37-8.69s-35.83,6.95-50.54,4.59-22.85-5.91-22.85-5.91l5.06-2.45s-9.26-30.14-20.52-40.86c-11.26-10.71-15.8-13.98-28.51-15.44s-20.34,1.63-20.34,1.63c0,0-3.27-3.27-4.54-2.18-1.27,1.09,1.43,7.72,1.43,7.72Z"/>
  <path id="Wing" class="cls-1" d="M154.36,222.62s9.69-5.84,10.21-18.55c.52-12.71-8.44-31.67-5.94-41.78,2.5-10.11,21.36-18.02,21.36-18.02,0,0,58.65-28.34,76.26-40.21,17.61-11.88,61.26-45.94,61.26-45.94,0,0,2.08,1.15,2.29,6.25.21,5.1-4.58,20-14.58,31.04s-26.57,25.21-50.84,37.19c-24.27,11.98-47.95,20.17-47.3,21.56s26.39-7.76,50.74-19.74c24.84-12.23,47.68-28.67,50.63-26.09,5.83,5.1-7.14,22.35-23.75,34.59-19.68,14.49-71.2,26.36-71.07,27.79s12.53-1.74,28.67-6.12c16.15-4.38,31.96-9.48,33.34-7.92,1.38,1.56-2.33,16.67-28.4,22.85-17.29,4.1-36.54,5.22-36.6,6.22s6.68.93,18.13-.31c13.65-1.48,18.65-4.58,19.9-1.15s-6.98,7.92-13.75,9.79c-6.77,1.88-30.44,3.25-30.52,4.27-.09,1.02,6.67.83,14.27.1,7.6-.73,13.54-2.81,14.27-.83.73,1.98-4.17,6.25-10.83,7.71s-23.75,2.64-23.75,3.96,14.25-.66,14.8,1.15c.55,1.81-18.96,10.83-18.96,10.83l-5.31,4.06-34.49-2.71Z"/>
  <path id="Back_Leg" data-name="Back Leg" class="cls-1" d="M212.87,274c-2.32,1-2.87,6.17-.38,9.23,3.16,3.89,10.08,6.12,10.08,7.54,0,2.54-14.16,6.27-16.77,7.16-2.61.9-9.87,4.56-10.57,5.86s-1.43,4.61-1.59,5.46,1.95,4.14,2.41,4.92c.74,1.25,5.28,6.88,7.82,6.88s6.53-7.1,6.31-8.57-5.24-2.62-4.49-4.69c.75-2.07,30.72-9.19,31.41-9.34s3.92-3.59,3.92-6c0-1.25-3.77-3.18-8.78-7.42-4.69-3.97-7.43-10.7-9.75-11.84-2.27-1.12-5.93-.78-9.63.82Z"/>
  <path id="Tail" class="cls-1" d="M244.81,229.49s1.57-5.49,17.61-2.09c16.04,3.4,26.07,15.09,26.07,15.09,0,0,14.48,18.49,20.58,23.37,6.1,4.88,11.07,6.19,20.67,5.06s18.16-18.66,19.88-18.4-2.48,12.62-8.36,18.5c-8.97,8.97-17.88,8.53-18.03,10.57-.16,2.04,9.58-.2,9.68,1.72.06,1.22-7.61,3.21-13.46,2.69s-18.14-5.23-18.14-5.23c0,0,2.01,2.35.7,3.49s-13.08-3.66-18.75-10.9c-5.67-7.24-13.52-28.6-19.01-31.3-5.49-2.7-18.49,5.14-18.49,5.14l-.96-17.7Z"/>
  <path id="Front_Leg" data-name="Front Leg" class="cls-1" d="M145.56,303.71c3.42,6.96,6.2,19.61,5.04,23.83-1.16,4.22-2.15,7.2-5.71,9.77-3.56,2.57-5.8,4.64-5.8,4.64l-.99,3.73h15.9s-2.32-2.82-.75-4.97c1.57-2.15.66-.25,1.82-.99s1.08-2.24,1.08-2.24c0,0,3.56-2.98,4.39-5.3.83-2.32-1.08-17.89-1.08-17.89,0,0-.83-10.02-.95-13.41-.12-3.39.39-16.05,0-16.44s-11.38-.54-15.03-.03c-3.66.51-5.31,1.51-5.42,1.96s7.5,17.34,7.5,17.34Z"/>
  <path id="Ground" class="cls-1" d="M215.63,343.67c-27.81.94-117.76-1.62-118.04,2.65-.27,4.27,77.96,5.84,123.49,4.9,45.52-.94,115.04,1.98,115.04-2s-120.49-5.55-120.49-5.55Z"/>
</svg>