<?xml version="1.0" encoding="UTF-8"?>
<svg xmlns="http://www.w3.org/2000/svg" viewBox="0 0 409.6 409.6">
  <defs>
    <style>
      .cls-1 {
        fill: #fff;
      }

      .cls-2 {
        fill: #b31e3b;
      }
    </style>
  </defs>
  <g id="Backgrounds">
    <rect class="cls-1" y="0" width="409.6" height="409.6"/>
  </g>
  <g id="Logos">
    <g>
      <g>
        <path id="Body" class="cls-2" d="M69.29,121.54s-8.61,8.24-15.82,23.51c-5.74,12.16-14.12,24.8-13.31,31.85.51,4.43,11.81,7.5,15.07,6.97,1.5-.25,4.43-9.82,8.8-12.34s7.93-1.85,14.02-5.27c6.08-3.41,9.71-10.23,9.71-10.23,0,0,2.6,2.52,4.52,7.27s2.67,14.41,2.75,22.61c.08,8.2-4.45,15.21-4.6,30.63-.15,15.42,5.71,20.81,4.44,24.3-1.42,3.92-9.33,8.73-17.46,12.58-9.15,4.34-18.57,6.7-18.57,12.41,0,6.83,6.3,9.89,9.19,13.51,2.88,3.62,6.07,10.44,7.41,13.22,1.58,3.29,20.74,6.72,22.52,4.95,1.5-1.5-.74-15.04-4.6-15.38-3.26-.29-9.66.67-9.66.67,0,0-1.91-3.07-2.69-5.6-.72-2.34-4.66-9.36-4.66-9.36,0,0,19.97-2.95,33.57-6.09,16.78-3.87,17.14-7.66,32.39-7.66,13.04,0,23.57.19,35.58-1.88,16.45-2.83,34.08-10.94,45.24-10.94,5.13,0,10.63,11.48,20.03,17.35,9.4,5.87,32.33,15.66,39.23,21.98,6.9,6.32,8.29,11.71,9.97,16.5,1.7,4.84,2.64,14.39,2.64,14.39,0,0,.65.24.46,2.13-.12,1.13-2.31,4.97-5.82,8.56-.6.61-.92,6.46-.92,6.46h15.44s-1.07-2.82-.47-4.86c.61-2.04,5.06-5.18,5.36-6.11s-2.51-13.51-5.85-22.79c-3.34-9.27-5.39-15.42-6.44-17.88-1.05-2.45-1.33-5.65-2.82-7.77-1.5-2.12-9.08-3.18-16.27-15.79-7.19-12.61-3.55-19.61-3.55-19.61l.59-23.06s-2.96-12.91-12.42-19.41c-9.46-6.5-14.19-9.95-33.31-9.85-19.12.1-40.64,7.88-57.32,5.21-16.68-2.68-25.92-6.7-25.92-6.7l5.74-2.77s-10.5-34.19-23.27-46.34c-12.77-12.15-17.92-15.86-32.34-17.51-14.42-1.65-23.07,1.85-23.07,1.85,0,0-3.71-3.71-5.15-2.47s1.62,8.76,1.62,8.76Z"/>
        <path id="Wing" class="cls-2" d="M147.6,186.57s10.99-6.62,11.58-21.03c.59-14.41-9.57-35.92-6.73-47.38s24.22-20.44,24.22-20.44c0,0,66.52-32.14,86.49-45.61C283.12,38.64,332.63,0,332.63,0c0,0,2.36,1.3,2.6,7.09.24,5.79-5.2,22.69-16.54,35.21-11.34,12.52-30.13,28.59-57.66,42.18-27.53,13.59-54.38,22.88-53.64,24.46.74,1.58,29.93-8.8,57.54-22.39,28.18-13.87,54.08-32.52,57.42-29.59,6.62,5.79-8.1,25.35-26.94,39.23-22.32,16.44-80.76,29.9-80.61,31.51s14.21-1.98,32.52-6.94c18.31-4.96,36.25-10.75,37.81-8.98,1.56,1.77-2.65,18.9-32.21,25.91-19.61,4.65-41.44,5.92-41.51,7.05s7.57,1.05,20.56-.35c15.48-1.68,21.15-5.2,22.57-1.3,1.42,3.9-7.92,8.98-15.6,11.11-7.68,2.13-34.52,3.68-34.62,4.84-.1,1.16,7.56.95,16.19.12,8.63-.83,15.36-3.19,16.19-.95s-4.73,7.09-12.29,8.74-26.94,3-26.94,4.49,16.16-.75,16.78,1.3-21.51,12.28-21.51,12.28l-6.03,4.61-39.11-3.07Z"/>
        <path id="Back_Leg" data-name="Back Leg" class="cls-2" d="M213.95,244.84c-2.63,1.13-3.25,7-.43,10.47,3.58,4.41,11.43,6.94,11.43,8.55,0,2.89-16.06,7.11-19.02,8.12s-11.19,5.17-11.99,6.64c-.8,1.47-1.62,5.23-1.8,6.19-.18.97,2.21,4.69,2.73,5.58.84,1.41,5.98,7.8,8.87,7.8s7.41-8.05,7.16-9.72c-.25-1.67-5.94-2.97-5.09-5.32.85-2.35,34.85-10.42,35.62-10.59s4.44-4.07,4.44-6.8c0-1.42-4.28-3.61-9.96-8.42-5.32-4.5-8.42-12.14-11.05-13.43s-6.72-.88-10.92.93Z"/>
        <path id="Tail" class="cls-2" d="M250.17,194.36s1.78-6.23,19.98-2.37c18.2,3.86,29.57,17.11,29.57,17.11,0,0,16.42,20.97,23.34,26.51s12.56,7.02,23.44,5.74c10.88-1.29,20.6-21.17,22.55-20.87s-2.81,14.31-9.49,20.99c-10.17,10.17-20.27,9.67-20.45,11.99s10.87-.23,10.98,1.95c.07,1.38-8.64,3.64-15.26,3.05-6.63-.59-20.57-5.93-20.57-5.93,0,0,2.27,2.67.79,3.96s-14.83-4.15-21.26-12.36c-6.43-8.21-15.33-32.44-21.56-35.5-6.23-3.07-20.97,5.84-20.97,5.84l-1.09-20.08Z"/>
        <path id="Front_Leg" data-name="Front Leg" class="cls-2" d="M137.61,278.54c3.88,7.9,7.04,22.24,5.72,27.03-1.31,4.79-2.44,8.17-6.48,11.08-4.04,2.91-6.57,5.26-6.57,5.26l-1.13,4.23h18.03s-2.63-3.19-.85-5.63c1.78-2.44.75-.28,2.07-1.13s1.22-2.54,1.22-2.54c0,0,4.04-3.38,4.98-6.01.94-2.63-1.22-20.29-1.22-20.29,0,0-.94-11.36-1.08-15.21-.14-3.85.44-18.21,0-18.64s-12.9-.62-17.05-.04c-4.15.58-6.02,1.72-6.14,2.23s8.51,19.67,8.51,19.67Z"/>
        <path id="Ground" class="cls-2" d="M217.08,323.86c-31.54,1.07-133.56-1.84-133.87,3-.31,4.84,88.42,6.63,140.06,5.56,51.63-1.07,130.47,2.25,130.47-2.26s-136.66-6.3-136.66-6.3Z"/>
      </g>
      <g>
        <g>
          <path class="cls-2" d="M29.93,408.72l8.91-50.52h18.19c6.97,0,12.36,1.56,16.17,4.68,3.8,3.12,5.71,8.02,5.71,14.69,0,1.33-.05,2.63-.15,3.9-.1,1.28-.25,2.53-.44,3.76-.88,5.01-2.6,9.26-5.16,12.74-2.55,3.49-5.79,6.15-9.72,7.99-3.93,1.84-8.47,2.76-13.62,2.76h-19.89ZM38.03,402.68h11.42c3.09,0,5.88-.42,8.36-1.25,2.48-.83,4.63-2.03,6.44-3.57,1.82-1.55,3.29-3.47,4.42-5.78,1.13-2.31,1.94-4.91,2.43-7.81.15-.83.26-1.62.33-2.36s.12-1.44.15-2.1c.02-.66.04-1.29.04-1.88,0-3.29-.59-5.94-1.77-7.95-1.18-2.01-2.9-3.47-5.16-4.38-2.26-.91-4.98-1.36-8.18-1.36h-11.71l-6.78,38.44Z"/>
          <path class="cls-2" d="M83.99,408.72l8.91-50.52h24.01c2.95,0,5.49.43,7.62,1.29,2.14.86,3.78,2.07,4.93,3.65,1.15,1.57,1.73,3.54,1.73,5.89,0,2.06-.44,4.01-1.33,5.86-.88,1.84-2.1,3.39-3.65,4.64s-3.35,2.15-5.41,2.69l-.07.29c2.16.69,3.95,1.88,5.38,3.57,1.42,1.69,2.14,3.99,2.14,6.89,0,3.54-.77,6.47-2.32,8.8-1.55,2.33-3.66,4.08-6.33,5.23-2.68,1.15-5.71,1.73-9.1,1.73h-26.51ZM92.09,402.68h18.71c2.16,0,4.01-.37,5.56-1.1s2.75-1.83,3.61-3.28c.86-1.45,1.29-3.28,1.29-5.49s-.69-3.93-2.06-5.16c-1.37-1.23-3.36-1.84-5.97-1.84h-18.19l-2.95,16.87ZM96.14,379.85h17.68c1.52,0,2.91-.23,4.16-.7,1.25-.47,2.31-1.13,3.17-1.99.86-.86,1.52-1.84,1.99-2.95.47-1.1.7-2.29.7-3.57,0-2.16-.63-3.77-1.88-4.82-1.25-1.06-2.91-1.58-4.97-1.58h-18.19l-2.65,15.61Z"/>
          <path class="cls-2" d="M135.47,408.72l8.84-50.52h35.87l-1.1,6.04h-28.8l-2.87,16.2h26.22l-1.03,5.97h-26.22l-3.9,22.32h-7Z"/>
        </g>
        <g>
          <path class="cls-2" d="M245.85,409.6c-2.9,0-5.57-.23-8.03-.7-2.46-.47-4.6-1.19-6.44-2.17-1.84-.98-3.28-2.26-4.31-3.83-1.03-1.57-1.55-3.46-1.55-5.67,0-.69.06-1.44.18-2.25.12-.81.28-1.56.48-2.25h6.85c-.15.54-.28,1.12-.41,1.73-.12.61-.18,1.22-.18,1.8,0,1.77.55,3.18,1.66,4.23,1.1,1.06,2.64,1.82,4.6,2.28,1.96.47,4.2.7,6.7.7,2.36,0,4.47-.2,6.33-.59,1.87-.39,3.44-.97,4.71-1.73,1.28-.76,2.26-1.71,2.95-2.84.69-1.13,1.03-2.38,1.03-3.76s-.37-2.53-1.1-3.46c-.74-.93-1.73-1.73-2.98-2.39-1.25-.66-2.65-1.25-4.2-1.77s-3.18-1.04-4.9-1.58c-1.87-.54-3.74-1.15-5.63-1.84-1.89-.69-3.61-1.53-5.16-2.54-1.55-1.01-2.77-2.26-3.68-3.76-.91-1.5-1.36-3.3-1.36-5.41,0-2.5.54-4.66,1.62-6.48,1.08-1.82,2.58-3.31,4.49-4.49,1.91-1.18,4.12-2.05,6.63-2.61,2.5-.56,5.13-.85,7.88-.85s5.25.23,7.51.7c2.26.47,4.22,1.18,5.89,2.14,1.67.96,2.96,2.17,3.87,3.65.91,1.47,1.36,3.19,1.36,5.16,0,.54-.03,1.09-.07,1.66-.05.57-.15,1.24-.29,2.03h-6.92c.15-.59.23-1.08.26-1.47.02-.39.04-.74.04-1.03,0-2.31-1.01-4.03-3.02-5.16-2.01-1.13-4.89-1.69-8.62-1.69-2.55,0-4.85.28-6.89.85-2.04.57-3.65,1.41-4.82,2.54-1.18,1.13-1.77,2.53-1.77,4.2,0,1.08.28,2.04.85,2.87.56.84,1.36,1.56,2.39,2.17,1.03.61,2.21,1.17,3.54,1.66,1.33.49,2.72.93,4.2,1.33,2.06.64,4.15,1.31,6.26,2.03,2.11.71,4.07,1.58,5.89,2.61,1.82,1.03,3.26,2.33,4.35,3.9,1.08,1.57,1.62,3.51,1.62,5.82,0,2.9-.59,5.36-1.77,7.4-1.18,2.04-2.79,3.72-4.82,5.04-2.04,1.33-4.37,2.3-7,2.91-2.63.61-5.36.92-8.21.92Z"/>
          <path class="cls-2" d="M297.92,409.6c-6.73,0-11.89-1.63-15.5-4.9-3.61-3.26-5.41-8.19-5.41-14.77,0-1.37.06-2.73.18-4.05.12-1.33.28-2.63.48-3.9.93-5.06,2.64-9.44,5.12-13.15,2.48-3.71,5.67-6.55,9.57-8.54,3.9-1.99,8.41-2.98,13.51-2.98,3.98,0,7.46.54,10.46,1.62,2.99,1.08,5.3,2.72,6.92,4.93,1.62,2.21,2.43,5.03,2.43,8.47,0,.64-.03,1.3-.07,1.99-.05.69-.15,1.38-.29,2.06h-7.14c.1-.54.17-1.08.22-1.62.05-.54.07-1.06.07-1.55,0-2.26-.52-4.11-1.55-5.56-1.03-1.45-2.52-2.53-4.46-3.24-1.94-.71-4.26-1.07-6.96-1.07-2.85,0-5.43.45-7.73,1.36-2.31.91-4.32,2.21-6.04,3.9-1.72,1.69-3.14,3.72-4.27,6.08-1.13,2.36-1.96,4.98-2.5,7.88-.1.74-.2,1.42-.29,2.06-.1.64-.18,1.24-.26,1.8-.07.57-.12,1.12-.15,1.66-.03.54-.04,1.08-.04,1.62,0,3.24.54,5.88,1.62,7.92,1.08,2.04,2.66,3.54,4.75,4.49,2.09.96,4.58,1.44,7.48,1.44,3.24,0,6.1-.48,8.58-1.44,2.48-.96,4.52-2.39,6.11-4.31,1.6-1.91,2.66-4.35,3.2-7.29h6.92c-.74,4.37-2.27,7.95-4.6,10.75-2.33,2.8-5.25,4.89-8.76,6.26-3.51,1.37-7.38,2.06-11.6,2.06Z"/>
          <path class="cls-2" d="M350.58,409.6c-5.79,0-10.32-1.22-13.59-3.65-3.27-2.43-4.9-6.25-4.9-11.45,0-.74.05-1.59.15-2.58.1-.98.25-1.96.44-2.95l5.45-30.79h7l-5.6,31.67c-.1.54-.2,1.2-.29,1.99-.1.79-.15,1.45-.15,1.99,0,3.34,1.01,5.79,3.02,7.36,2.01,1.57,4.88,2.36,8.62,2.36,4.37,0,7.98-1.1,10.83-3.31,2.85-2.21,4.64-5.52,5.38-9.94l5.74-32.11h7l-5.6,31.37c-.84,4.67-2.27,8.48-4.31,11.45-2.04,2.97-4.67,5.14-7.88,6.52-3.22,1.37-6.99,2.06-11.31,2.06Z"/>
        </g>
        <path class="cls-2" d="M201.17,389.52c-1.01,0-1.91-.22-2.7-.66s-1.4-1.03-1.84-1.77c-.44-.74-.66-1.56-.66-2.48,0-1.41.31-2.65.93-3.73.62-1.08,1.47-1.93,2.55-2.55,1.08-.62,2.31-.93,3.68-.93,1.05,0,1.96.22,2.73.66.77.44,1.37,1.03,1.79,1.77.42.74.64,1.56.64,2.48,0,1.41-.31,2.65-.93,3.73-.62,1.08-1.47,1.93-2.53,2.55-1.06.62-2.28.93-3.66.93Z"/>
      </g>
    </g>
  </g>
</svg>