<?xml version="1.0" encoding="UTF-8"?>
<svg xmlns="http://www.w3.org/2000/svg" viewBox="0 0 1331.2 409.6">
  <defs>
    <style>
      .cls-1 {
        fill: #fff;
      }

      .cls-2 {
        fill: #b31e3b;
      }
    </style>
  </defs>
  <g id="Backgrounds">
    <rect class="cls-1" width="1331.2" height="409.6"/>
  </g>
  <g id="Logos">
    <g>
      <g>
        <path class="cls-2" d="M488.03,287.38l46.59-264.1h95.09c36.45,0,64.61,8.15,84.51,24.45,19.89,16.3,29.84,41.9,29.84,76.8,0,6.93-.26,13.73-.77,20.4-.51,6.67-1.28,13.22-2.31,19.64-4.62,26.18-13.6,48.38-26.95,66.6-13.35,18.22-30.28,32.14-50.82,41.77s-44.28,14.44-71.22,14.44h-103.95ZM530.38,255.82h59.67c16.17,0,30.73-2.18,43.7-6.55,12.96-4.36,24.19-10.59,33.68-18.67,9.5-8.08,17.2-18.16,23.1-30.22,5.9-12.06,10.13-25.67,12.7-40.81.77-4.36,1.35-8.47,1.73-12.32.39-3.85.64-7.5.77-10.97s.19-6.74.19-9.82c0-17.2-3.08-31.06-9.24-41.58-6.16-10.52-15.14-18.16-26.95-22.91-11.81-4.75-26.05-7.12-42.74-7.12h-61.21l-35.42,200.96Z"/>
        <path class="cls-2" d="M770.61,287.38l46.59-264.1h125.5c15.39,0,28.68,2.25,39.84,6.74,11.16,4.49,19.76,10.84,25.79,19.05,6.03,8.22,9.05,18.48,9.05,30.8,0,10.78-2.31,20.98-6.93,30.61-4.62,9.62-10.97,17.71-19.05,24.25-8.08,6.55-17.52,11.23-28.3,14.05l-.38,1.54c11.29,3.59,20.66,9.82,28.1,18.67,7.44,8.86,11.16,20.86,11.16,36,0,18.48-4.04,33.81-12.13,46s-19.12,21.3-33.11,27.33c-13.99,6.04-29.84,9.05-47.54,9.05h-138.59ZM812.96,255.82h97.78c11.29,0,20.98-1.92,29.07-5.78,8.08-3.85,14.37-9.56,18.87-17.13,4.49-7.57,6.74-17.13,6.74-28.68s-3.59-20.53-10.78-26.95c-7.19-6.41-17.59-9.62-31.19-9.62h-95.09l-15.4,88.16ZM834.13,136.47h92.4c7.95,0,15.21-1.22,21.75-3.66s12.06-5.9,16.55-10.39c4.49-4.49,7.96-9.62,10.39-15.4,2.44-5.78,3.66-12,3.66-18.67,0-11.29-3.27-19.7-9.82-25.22-6.55-5.52-15.21-8.28-25.99-8.28h-95.09l-13.86,81.62Z"/>
        <path class="cls-2" d="M1039.71,287.38l46.2-264.1h187.48l-5.78,31.57h-150.53l-15.01,84.69h137.05l-5.39,31.19h-137.05l-20.4,116.65h-36.57Z"/>
      </g>
      <g>
        <path class="cls-2" d="M459.32,346.25c-1.32-5.12-5.48-9.21-12.28-9.21-6.14,0-9.8,2.92-9.87,8.19-.15,11.55,29.68,8.63,29.68,25.59,0,7.68-4.31,15.5-17.77,15.5-11.55,0-16.08-7.46-18.86-13.75l5.34-1.9c2.12,5.56,6.07,10.67,13.82,10.67s11.63-4.09,11.63-9.5c0-13.45-29.68-9.5-29.68-26.17,0-7.6,6.36-13.6,15.87-13.6,8.19,0,14.62,4.31,17.4,13.01l-5.26,1.17Z"/>
        <path class="cls-2" d="M473,385.58l16.23-52.79h8.7l16.23,52.79h-6.14l-4.97-16.52h-18.94l-4.97,16.52h-6.14ZM485.57,364.09h16.01l-7.6-27.2h-.8l-7.6,27.2Z"/>
        <path class="cls-2" d="M523.81,385.58v-52.79h8.41l23.03,40.65h.29v-40.65h5.26v52.79h-4.83l-26.76-47.08h-.15v47.08h-5.26Z"/>
        <path class="cls-2" d="M591.95,337.77v47.82h-5.85v-47.82h-15.79v-4.97h37.43v4.97h-15.79Z"/>
        <path class="cls-2" d="M607.09,385.58l16.23-52.79h8.7l16.23,52.79h-6.14l-4.97-16.52h-18.94l-4.97,16.52h-6.14ZM619.66,364.09h16.01l-7.6-27.2h-.8l-7.6,27.2Z"/>
        <path class="cls-2" d="M714.12,369.79c-2.34,9.8-7.75,16.52-18.57,16.52-11.84,0-20.18-8.63-20.18-27.12,0-17.18,7.46-27.12,20.18-27.12,9.8,0,15.5,5.7,17.84,15.35l-5.41,1.61c-1.9-7.46-5.26-11.99-13.16-11.99s-13.6,7.02-13.6,22.15,6,22.15,14.77,22.15c8.12,0,11.26-6.14,12.87-12.58l5.26,1.02Z"/>
        <path class="cls-2" d="M724.87,385.58v-52.79h5.85v47.82h25v4.97h-30.85Z"/>
        <path class="cls-2" d="M759.38,385.58l16.23-52.79h8.7l16.23,52.79h-6.14l-4.97-16.52h-18.94l-4.97,16.52h-6.14ZM771.96,364.09h16.01l-7.6-27.2h-.8l-7.6,27.2Z"/>
        <path class="cls-2" d="M809.61,385.58v-52.79h16.96c11.41,0,17.62,5.12,17.62,13.89,0,7.46-4.31,11.7-10.53,13.75l11.19,25.15h-6.36l-10.67-23.98h-12.36v23.98h-5.85ZM815.46,356.63h10.6c8.04,0,12.28-3,12.28-9.65,0-7.09-4.83-9.21-12.36-9.21h-10.53v18.86Z"/>
        <path class="cls-2" d="M852.82,385.58l16.23-52.79h8.7l16.23,52.79h-6.14l-4.97-16.52h-18.94l-4.97,16.52h-6.14ZM865.4,364.09h16.01l-7.6-27.2h-.8l-7.6,27.2Z"/>
        <path class="cls-2" d="M931.78,332.8v37.29c0,6.14,4.39,11.26,12.65,11.26s12.65-5.12,12.65-11.26v-37.29h5.85v36.85c0,10.53-7.6,16.67-18.5,16.67s-18.5-6.14-18.5-16.67v-36.85h5.85Z"/>
        <path class="cls-2" d="M978.72,385.58v-52.79h8.41l23.03,40.65h.29v-40.65h5.26v52.79h-4.83l-26.76-47.08h-.15v47.08h-5.26Z"/>
        <path class="cls-2" d="M1038.67,332.8v52.79h-5.85v-52.79h5.85Z"/>
        <path class="cls-2" d="M1049.27,332.8h5.85l13.01,43.28h.15l13.09-43.28h5.92l-16.38,52.79h-5.34l-16.3-52.79Z"/>
        <path class="cls-2" d="M1128.16,332.8v4.97h-25.81v17.69h18.35v4.97h-18.35v20.18h27.27v4.97h-33.12v-52.79h31.66Z"/>
        <path class="cls-2" d="M1140.59,385.58v-52.79h16.96c11.41,0,17.62,5.12,17.62,13.89,0,7.46-4.31,11.7-10.53,13.75l11.19,25.15h-6.36l-10.67-23.98h-12.36v23.98h-5.85ZM1146.44,356.63h10.6c8.04,0,12.28-3,12.28-9.65,0-7.09-4.83-9.21-12.36-9.21h-10.53v18.86Z"/>
        <path class="cls-2" d="M1214.8,346.25c-1.32-5.12-5.48-9.21-12.28-9.21-6.14,0-9.8,2.92-9.87,8.19-.15,11.55,29.68,8.63,29.68,25.59,0,7.68-4.31,15.5-17.77,15.5-11.55,0-16.08-7.46-18.86-13.75l5.34-1.9c2.12,5.56,6.07,10.67,13.82,10.67s11.63-4.09,11.63-9.5c0-13.45-29.68-9.5-29.68-26.17,0-7.6,6.36-13.6,15.87-13.6,8.19,0,14.62,4.31,17.4,13.01l-5.26,1.17Z"/>
        <path class="cls-2" d="M1241.78,332.8v52.79h-5.85v-52.79h5.85Z"/>
        <path class="cls-2" d="M1274.32,337.77v47.82h-5.85v-47.82h-15.79v-4.97h37.43v4.97h-15.79Z"/>
        <path class="cls-2" d="M1309.12,363.36l-16.23-30.56h6.43l12.72,24.2,12.72-24.2h6.43l-16.23,30.56v22.23h-5.85v-22.23Z"/>
      </g>
    </g>
    <g>
      <path id="Body" class="cls-2" d="M35.93,149.62s-10.61,10.15-19.48,28.94C9.38,193.54-.92,209.1.07,217.77c.62,5.46,14.54,9.23,18.55,8.58,1.84-.3,5.45-12.09,10.84-15.2,5.39-3.1,9.77-2.28,17.25-6.48,7.49-4.2,11.96-12.6,11.96-12.6,0,0,3.2,3.1,5.57,8.95,2.37,5.84,3.29,17.73,3.39,27.83.1,10.1-5.48,18.73-5.66,37.71s7.03,25.61,5.47,29.91c-1.75,4.83-11.49,10.74-21.49,15.49-11.26,5.34-22.87,8.24-22.87,15.28,0,8.41,7.76,12.18,11.31,16.63,3.55,4.46,7.47,12.85,9.12,16.27,1.95,4.04,25.53,8.28,27.72,6.09,1.85-1.85-.92-18.51-5.66-18.93-4.01-.35-11.89.83-11.89.83,0,0-2.35-3.78-3.31-6.89-.89-2.88-5.74-11.52-5.74-11.52,0,0,24.58-3.63,41.33-7.49,20.66-4.76,21.11-9.43,39.88-9.43,16.05,0,29.02.23,43.8-2.31,20.25-3.49,41.96-13.46,55.69-13.46,6.32,0,13.08,14.13,24.66,21.36,11.57,7.23,39.8,19.28,48.29,27.06,8.5,7.77,10.21,14.42,12.27,20.31,2.09,5.96,3.25,17.72,3.25,17.72,0,0,.8.3.56,2.62-.14,1.39-2.85,6.12-7.16,10.53-.73.75-1.13,7.95-1.13,7.95h19.01s-1.32-3.47-.57-5.98c.75-2.51,6.23-6.38,6.6-7.52s-3.09-16.64-7.2-28.05-6.63-18.99-7.92-22.01-1.63-6.95-3.47-9.56-11.17-3.91-20.03-19.44c-8.86-15.53-4.37-24.14-4.37-24.14l.73-28.39s-3.64-15.89-15.28-23.9-17.47-12.25-41-12.13c-23.53.12-50.03,9.7-70.57,6.41-20.54-3.3-31.91-8.25-31.91-8.25l7.06-3.41s-12.93-42.09-28.65-57.05c-15.72-14.96-22.06-19.52-39.81-21.55-17.75-2.03-28.4,2.28-28.4,2.28,0,0-4.56-4.56-6.34-3.04s1.99,10.78,1.99,10.78Z"/>
      <path id="Wing" class="cls-2" d="M132.33,229.68s13.53-8.15,14.26-25.89-11.78-44.22-8.29-58.33c3.49-14.11,29.82-25.16,29.82-25.16,0,0,81.89-39.56,106.47-56.15S360.12,0,360.12,0c0,0,2.91,1.6,3.2,8.73.29,7.13-6.4,27.93-20.36,43.35-13.96,15.42-37.09,35.2-70.98,51.93-33.89,16.73-66.94,28.17-66.04,30.11s36.85-10.83,70.84-27.57c34.69-17.08,66.58-40.03,70.69-36.43,8.15,7.13-9.97,31.21-33.16,48.29-27.48,20.24-99.42,36.81-99.24,38.8s17.49-2.43,40.04-8.54c22.55-6.11,44.62-13.23,46.55-11.05s-3.26,23.27-39.66,31.9c-24.14,5.72-51.02,7.29-51.11,8.68s9.32,1.3,25.31-.44c19.06-2.07,26.04-6.4,27.78-1.6,1.75,4.8-9.75,11.05-19.2,13.67-9.45,2.62-42.5,4.53-42.62,5.96s9.31,1.16,19.93.15c10.62-1.02,18.91-3.93,19.93-1.16s-5.82,8.73-15.13,10.76-33.16,3.69-33.16,5.53,19.9-.92,20.66,1.6-26.48,15.12-26.48,15.12l-7.42,5.67-48.15-3.78Z"/>
      <path id="Back_Leg" data-name="Back Leg" class="cls-2" d="M214.02,301.41c-3.23,1.39-4,8.62-.53,12.89,4.41,5.42,14.08,8.54,14.08,10.52,0,3.55-19.78,8.75-23.42,10-3.64,1.25-13.78,6.37-14.76,8.18s-2,6.44-2.22,7.63,2.72,5.77,3.37,6.87c1.03,1.74,7.37,9.6,10.92,9.6s9.12-9.91,8.81-11.97-7.32-3.66-6.26-6.55c1.05-2.89,42.9-12.83,43.85-13.03s5.47-5.01,5.47-8.37c0-1.75-5.27-4.44-12.26-10.36-6.55-5.54-10.37-14.94-13.61-16.54s-8.27-1.08-13.44,1.14Z"/>
      <path id="Tail" class="cls-2" d="M258.61,239.27s2.19-7.67,24.59-2.92c22.4,4.75,36.4,21.06,36.4,21.06,0,0,20.21,25.81,28.73,32.63,8.52,6.82,15.46,8.64,28.86,7.06s25.36-26.06,27.76-25.69c2.4.37-3.46,17.62-11.68,25.84-12.52,12.52-24.96,11.9-25.18,14.75s13.38-.28,13.52,2.41c.09,1.7-10.63,4.49-18.79,3.76s-25.32-7.31-25.32-7.31c0,0,2.8,3.29.97,4.87-1.83,1.58-18.26-5.11-26.18-15.22s-18.87-39.93-26.54-43.71c-7.67-3.77-25.81,7.18-25.81,7.18l-1.34-24.72Z"/>
      <path id="Front_Leg" data-name="Front Leg" class="cls-2" d="M120.04,342.91c4.77,9.72,8.66,27.38,7.04,33.27-1.62,5.9-3.01,10.06-7.98,13.64-4.97,3.58-8.09,6.47-8.09,6.47l-1.39,5.2h22.2s-3.24-3.93-1.04-6.94c2.2-3.01.92-.35,2.54-1.39s1.5-3.12,1.5-3.12c0,0,4.97-4.16,6.13-7.4s-1.5-24.97-1.5-24.97c0,0-1.16-13.99-1.33-18.73-.17-4.74.54-22.41,0-22.95s-15.88-.76-20.99-.05c-5.1.71-7.41,2.11-7.56,2.74s10.47,24.21,10.47,24.21Z"/>
      <path id="Ground" class="cls-2" d="M217.87,398.69c-38.82,1.32-164.43-2.27-164.81,3.7s108.86,8.16,172.42,6.84,160.62,2.77,160.62-2.79-168.23-7.75-168.23-7.75Z"/>
    </g>
  </g>
</svg>