<?xml version="1.0" encoding="UTF-8"?>
<svg xmlns="http://www.w3.org/2000/svg" viewBox="0 0 409.6 409.6">
  <defs>
    <style>
      .cls-1 {
        font-family: TradeGothicLTStd, 'Trade Gothic LT Std';
        font-size: 42.56px;
      }

      .cls-1, .cls-2, .cls-3 {
        fill: #b31e3b;
      }

      .cls-4 {
        fill: #fff;
      }

      .cls-3 {
        font-family: ArchivoItalic-Medium, Archivo;
        font-size: 44.81px;
        font-variation-settings: 'wght' 500, 'wdth' 100;
        font-weight: 500;
      }

      .cls-5 {
        letter-spacing: -.05em;
      }
    </style>
  </defs>
  <g id="Backgrounds">
    <rect class="cls-4" width="409.6" height="409.6"/>
  </g>
  <g id="Logos">
    <g>
      <path id="Body" class="cls-2" d="M78.02,113.71s-8.06,7.71-14.8,22c-5.37,11.38-13.21,23.21-12.45,29.8.47,4.15,11.05,7.02,14.09,6.52,1.4-.23,4.14-9.19,8.24-11.55,4.09-2.36,7.42-1.73,13.11-4.93,5.69-3.19,9.09-9.57,9.09-9.57,0,0,2.43,2.36,4.23,6.8,1.8,4.44,2.5,13.48,2.57,21.15s-4.16,14.23-4.3,28.66c-.14,14.43,5.34,19.46,4.15,22.73-1.33,3.67-8.73,8.17-16.33,11.77-8.56,4.06-17.38,6.27-17.38,11.61,0,6.39,5.9,9.25,8.59,12.64,2.7,3.39,5.68,9.77,6.93,12.37,1.48,3.07,19.41,6.29,21.07,4.63,1.41-1.41-.7-14.07-4.3-14.39-3.05-.27-9.03.63-9.03.63,0,0-1.79-2.87-2.52-5.24-.67-2.19-4.36-8.76-4.36-8.76,0,0,18.68-2.76,31.41-5.7,15.7-3.62,16.04-7.17,30.31-7.17,12.2,0,22.05.18,33.29-1.76,15.39-2.65,31.89-10.23,42.32-10.23,4.8,0,9.94,10.74,18.74,16.24,8.79,5.5,30.24,14.65,36.7,20.56,6.46,5.91,7.76,10.96,9.33,15.44,1.59,4.53,2.47,13.47,2.47,13.47,0,0,.61.23.43,1.99-.11,1.06-2.16,4.65-5.44,8-.56.57-.86,6.04-.86,6.04h14.45s-1.01-2.64-.44-4.54c.57-1.9,4.74-4.85,5.02-5.72.28-.87-2.35-12.64-5.47-21.32-3.12-8.68-5.04-14.43-6.02-16.72-.98-2.29-1.24-5.28-2.64-7.27-1.4-1.98-8.49-2.97-15.22-14.77-6.73-11.8-3.32-18.35-3.32-18.35l.55-21.57s-2.77-12.08-11.62-18.16c-8.85-6.08-13.27-9.31-31.16-9.22-17.88.09-38.02,7.38-53.63,4.87-15.61-2.5-24.25-6.27-24.25-6.27l5.37-2.59s-9.83-31.99-21.77-43.35c-11.95-11.37-16.76-14.84-30.25-16.38-13.49-1.54-21.58,1.73-21.58,1.73,0,0-3.47-3.47-4.82-2.31-1.35,1.16,1.51,8.2,1.51,8.2Z"/>
      <path id="Wing" class="cls-2" d="M151.28,174.55s10.28-6.19,10.84-19.68c.55-13.49-8.95-33.6-6.3-44.33,2.65-10.72,22.66-19.12,22.66-19.12,0,0,62.23-30.07,80.92-42.67C278.08,36.15,324.39,0,324.39,0c0,0,2.21,1.22,2.43,6.63.22,5.42-4.86,21.22-15.48,32.94-10.61,11.72-28.19,26.75-53.94,39.46-25.76,12.71-50.87,21.4-50.19,22.88s28-8.23,53.84-20.95c26.36-12.98,50.59-30.42,53.72-27.69,6.19,5.42-7.58,23.72-25.2,36.7-20.89,15.38-75.55,27.97-75.42,29.48.14,1.51,13.29-1.85,30.43-6.49,17.13-4.64,33.91-10.06,35.37-8.4s-2.48,17.68-30.14,24.24c-18.35,4.35-38.77,5.54-38.84,6.6s7.09.99,19.23-.33c14.48-1.57,19.79-4.86,21.11-1.22,1.33,3.65-7.41,8.4-14.59,10.39-7.19,1.99-32.3,3.45-32.39,4.53-.09,1.09,7.07.88,15.14.11,8.07-.77,14.37-2.98,15.14-.88.77,2.1-4.42,6.63-11.5,8.18-7.07,1.55-25.2,2.8-25.2,4.2,0,1.4,15.12-.7,15.7,1.22s-20.12,11.49-20.12,11.49l-5.64,4.31-36.59-2.87Z"/>
      <path id="Back_Leg" data-name="Back Leg" class="cls-2" d="M213.36,229.06c-2.46,1.06-3.04,6.55-.4,9.8,3.35,4.12,10.7,6.49,10.7,8,0,2.7-15.03,6.65-17.8,7.6-2.77.95-10.47,4.84-11.22,6.21-.75,1.37-1.52,4.89-1.69,5.8-.17.9,2.07,4.39,2.56,5.22.78,1.32,5.6,7.3,8.3,7.3s6.93-7.53,6.7-9.1-5.56-2.78-4.76-4.98c.8-2.2,32.6-9.75,33.33-9.91s4.16-3.81,4.16-6.36c0-1.33-4-3.37-9.32-7.87-4.98-4.21-7.88-11.35-10.34-12.57-2.41-1.19-6.29-.82-10.22.87Z"/>
      <path id="Tail" class="cls-2" d="M247.25,181.84s1.67-5.83,18.69-2.22c17.03,3.61,27.67,16.01,27.67,16.01,0,0,15.36,19.62,21.84,24.8s11.75,6.57,21.93,5.37c10.18-1.2,19.27-19.8,21.1-19.52s-2.63,13.39-8.87,19.63c-9.52,9.52-18.97,9.05-19.13,11.21s10.17-.22,10.27,1.83c.07,1.29-8.08,3.41-14.28,2.85s-19.25-5.55-19.25-5.55c0,0,2.13,2.5.74,3.7-1.39,1.2-13.88-3.89-19.89-11.57-6.01-7.68-14.34-30.35-20.17-33.22-5.83-2.87-19.62,5.46-19.62,5.46l-1.02-18.78Z"/>
      <path id="Front_Leg" data-name="Front Leg" class="cls-2" d="M141.94,260.59c3.63,7.39,6.58,20.8,5.35,25.29-1.23,4.48-2.28,7.64-6.06,10.37-3.78,2.72-6.15,4.92-6.15,4.92l-1.05,3.95h16.87s-2.46-2.99-.79-5.27c1.67-2.28.7-.26,1.93-1.05s1.14-2.37,1.14-2.37c0,0,3.78-3.16,4.66-5.62.88-2.46-1.14-18.98-1.14-18.98,0,0-.88-10.63-1.01-14.23-.13-3.6.41-17.03,0-17.44s-12.07-.58-15.95-.03c-3.88.54-5.63,1.61-5.75,2.08s7.96,18.4,7.96,18.4Z"/>
      <path id="Ground" class="cls-2" d="M216.29,302.99c-29.5,1-124.96-1.72-125.25,2.81-.29,4.53,82.73,6.2,131.03,5.2,48.31-1,122.07,2.1,122.07-2.12s-127.85-5.89-127.85-5.89Z"/>
    </g>
    <text class="cls-3" transform="translate(-1.28 352.19)"><tspan x="0" y="0">DESIGN BUILD FL</tspan><tspan class="cls-5" x="378.12" y="0">Y</tspan></text>
    <text class="cls-1" transform="translate(-1.93 401.25)"><tspan x="0" y="0">Santa Clara University</tspan></text>
    <rect class="cls-2" x="-.16" y="361.94" width="409.76" height="1.23"/>
  </g>
</svg>